<?xml version="1.0" encoding="UTF-8"?>
<svg id="_レイヤー_2" data-name="レイヤー 2" xmlns="http://www.w3.org/2000/svg" viewBox="0 0 26 26">
  <defs>
    <style>
      .cls-1 {
        fill: #83ae94;
      }

      .cls-2 {
        fill: #4b4b4b;
      }

      .cls-3 {
        fill: #89b199;
      }

      .cls-4 {
        fill: #4a4a4a;
      }

      .cls-5 {
        fill: #4d4d4d;
      }

      .cls-6 {
        fill: #4e4e4e;
      }

      .cls-7 {
        fill: #fae7de;
      }

      .cls-8 {
        fill: #f3e2da;
      }

      .cls-9 {
        fill: #5a5a5a;
      }

      .cls-10 {
        fill: #8dc39e;
      }

      .cls-11 {
        fill: #636363;
      }

      .cls-12 {
        fill: #5fad63;
      }

      .cls-13 {
        fill: #fbe8df;
      }

      .cls-14 {
        fill: #838383;
      }

      .cls-15 {
        fill: #6bc871;
      }

      .cls-16 {
        fill: #599f5d;
      }

      .cls-17 {
        fill: #666;
      }

      .cls-18 {
        fill: #8fc3a0;
      }

      .cls-19 {
        fill: #dfdfdf;
      }
    </style>
  </defs>
  <g id="_レイヤー_1-2" data-name="レイヤー 1">
    <g>
      <path class="cls-18" d="M4.04,25.8C.82,26.48-.17,25.39,.02,21.97,.38,15.71,.22,9.42,.07,3.15,.03,1.05,.23,.19,2.73,.34c4.66,.28,9.36,.08,14.04,.08,.25,.41,.33,.84,.23,1.31-.95,2.15-3.28,3.08-4.45,5.03-.22,.37-.48,.72-.75,1.06-.29,.3-.61,.59-.94,.85-.63,.52-1.29,1.01-1.69,1.75-.22,.33-.45,.66-.66,.99-.15,.36-.35,.71-.55,1.05-.33,.49-.79,.88-1.03,1.44-.66,3.09,1.68,5.28,2.38,7.95,.05,.69-.01,1.37-.35,1.99-1.15,1.88-3.53,.66-4.92,1.95Z"/>
      <path class="cls-10" d="M16.75,1.37c0-.32,0-.63,.02-.95,2.94,0,7.02-1.14,8.49,.32,1.47,1.46,.32,5.53,.32,8.46,0,4.23-.28,8.48,.09,12.68,.3,3.38-.65,4.65-4,3.91-.96-.92-2.26-.87-3.43-1.18-1.13-.6-2.3-1.15-3.39-1.83-.5-.5-.79-1.09-.87-1.8-.06-2.72,3.06-3.82,3.29-6.4,.64-1.56,1.3-3.12,1.44-4.83,.38-1.58,.16-3.18,.06-4.76-.3-1.22-1.36-1.96-1.89-3.03-.04-.2-.07-.4-.1-.6Z"/>
      <path class="cls-8" d="M7.71,23.97c.11-.62,.23-1.24,.34-1.87,.71-1.04,1.69-1.36,2.9-1.11,1.98,1.06,2.84,2.58,1.91,4.79h-3.92c-.56-.51-1.42-.81-1.23-1.82Z"/>
      <path class="cls-13" d="M12.85,25.8c-.66-1.33-1.33-2.65-1.99-3.98-.25-.45-.2-.85,.17-1.21,.45-.18,.9-.22,1.37-.12,1.39,1.23,2.92,2.34,3.83,4.03,.03,.49-.12,.92-.44,1.28h-2.94Z"/>
      <path class="cls-19" d="M15.79,25.8c0-.32-.01-.65-.01-.97-.22-.93-1.17-1.85,0-2.78,1.52-.18,2.43,.63,3.07,1.87,.39,1.06-.55,1.36-1.1,1.88h-1.96Z"/>
      <path class="cls-14" d="M7.71,23.97c.41,.61,.82,1.21,1.23,1.82H4.04c.48-2.09,2.45-1.2,3.67-1.82Z"/>
      <path class="cls-12" d="M17.74,25.8c.37-.63,.73-1.25,1.1-1.88,1.41-.07,2.15,.85,2.82,1.88h-3.92Z"/>
      <path class="cls-15" d="M21.64,4.2c-.93,1.91,.91,4.17-.75,5.99-1.4,1.83-3.07,2.46-5.18,1.21-.4-.22-.74-.52-1.02-.88-.53-1.09-1.02-2.23-2.09-2.95-.61-.45-1.28-.85-1.73-1.49,1.07-2.68,3.12-4.14,5.89-4.71,0,0-.01,.04-.01,.04,1.41,1.32,3.44,1.55,4.9,2.79Z"/>
      <path class="cls-3" d="M10.84,20.93c.04,.3,.04,.59,.02,.89-.94,.1-1.88,.19-2.81,.29-1.52-3.57-5.14-6.38-3.95-10.93,1.63,1.08,3.61,1.78,4.29,3.91,1.08,1.84,3.18,3.25,2.45,5.84Z"/>
      <path class="cls-2" d="M6.86,15.98c-.92-1.6-1.84-3.2-2.76-4.8,.9-.05,1.8-.1,2.7-.16,.4-.26,.81-.49,1.23-.72,1.03-.29,1.9,.13,2.75,.62,.42,.29,.75,.66,.99,1.1,.2,.48,.28,.97,.26,1.48-.06,.51-.24,.98-.53,1.41-1.26,1.6-2.8,1.97-4.64,1.05Z"/>
      <path class="cls-11" d="M10.88,12.12c-.98-.33-1.95-.67-2.93-1-.3-.23-.47-.54-.49-.93-.04-.38-.19-.7-.45-.97,.42-1.48,1.38-2.14,2.93-1.92,.53,.28,1.13,.36,1.67,.61,.73,.5,1.11,1.18,1.14,2.07-.05,.65-.34,1.18-.76,1.66-.33,.26-.7,.42-1.11,.48Z"/>
      <path class="cls-6" d="M10.86,6.08c.65-.26,1.31-.51,1.96-.77,.52,.47,.63,1.07,.53,1.73-.21,.38-.52,.66-.92,.82-.43,.06-.84,0-1.23-.19-.13-.17-.26-.34-.39-.51,.02-.36,.04-.72,.06-1.07Z"/>
      <path class="cls-4" d="M10.9,8.22c-.32-.3-.64-.61-.96-.91,.28-.08,.57-.13,.87-.15,0,0,.07,.11,.07,.11,.13,.16,.26,.31,.39,.47-.12,.16-.24,.32-.37,.48Z"/>
      <path class="cls-9" d="M7.01,9.22c.31,.32,.63,.63,.94,.95-.3,.46-.61,.44-.91,0-.08-.31-.09-.63-.03-.95Z"/>
      <path class="cls-17" d="M7.04,10.17c.3,0,.61,0,.91,0,0,.32,0,.63,0,.95-.38-.03-.77-.06-1.15-.09,.06-.29,.15-.58,.25-.86Z"/>
      <path class="cls-7" d="M6.86,15.98c1.58-.03,2.18-2.25,3.99-1.76,1.01-.37,2.03-.61,3.11-.42,.63-.02,1.26-.09,1.9-.09,1.11,.08,2.03,.57,2.79,1.36-.21,2.61-1.58,4.49-3.7,5.9-1.04,.89-2.07,.63-3.08-.06-.34,0-.69,.01-1.03,.02-2.06-1.07-2.88-3.12-3.98-4.95Z"/>
      <path class="cls-5" d="M18.65,15.07c-.92,.82-1.9,.49-2.87,.14-2.87-.97-.87-2.9-.89-4.44,.25-.41,.61-.69,1.05-.87,1.63,.44,3.25,1.01,4.95,.3-.74,1.63-1.49,3.26-2.23,4.88Z"/>
      <path class="cls-8" d="M11.87,20.92c1.03,.02,2.05,.04,3.08,.06,.27,.36,.54,.71,.82,1.07,0,.93,0,1.85,0,2.78-1.61-.99-2.92-2.29-3.91-3.91Z"/>
      <path class="cls-1" d="M21.64,4.2c-1.97-.34-4.16-.3-4.9-2.79,1.86,.53,4.01,.55,4.9,2.79Z"/>
      <path class="cls-4" d="M15.93,9.89c-.06,.46-.13,.92-.19,1.39-.37,.33-.78,.61-1.21,.85-1.03,.36-1.95,.19-2.73-.6-.36-.44-.36-.88,.01-1.31-.3-.67-.61-1.33-.91-2,0,0-.03,.04-.03,.04,.48-.68,1.46-.37,1.97-.99l.04-.03c1.9-.67,1.89,1.38,2.88,2.01,.09,.21,.14,.43,.17,.65Z"/>
      <path class="cls-16" d="M15.77,9.24c-1.43,0-1.94-1.31-2.88-2.01-.02-.64-.04-1.28-.06-1.93,1.75,.74,3.08,1.79,2.94,3.93Z"/>
      <path class="cls-4" d="M11.82,11.14c1.03,.02,2.07,.04,3.1,.06,.7,1.87-.36,3.31-1.2,4.8-.96-.59-1.92-1.18-2.87-1.78,.01-.37,.03-.74,.04-1.11,.26-.21,.35-.41,.27-.63-.08-.21-.17-.32-.25-.32,0,0-.03-.04-.03-.04,.01-.3,.02-.6,.02-.9,.27-.43,.58-.44,.92-.09Z"/>
      <path class="cls-4" d="M10.91,12.16c.06,.22,.14,.43,.16,.65,0,.09-.12,.2-.18,.3,0-.32,.01-.63,.02-.95Z"/>
      <path class="cls-17" d="M11.82,11.14c-.31,.02-.61,.05-.92,.09,.31-.34,.61-.67,.92-1.01,.02,.31,.02,.62,0,.92Z"/>
      <path class="cls-17" d="M12.84,7.26c-.66,.33-1.31,.66-1.97,.99,0-.33,0-.66,0-.99,.65,0,1.31,0,1.96,0Z"/>
      <path class="cls-8" d="M13.72,16c.4-1.6,.8-3.2,1.2-4.8,.28-.03,.55,0,.82,.08,.01,1.31,.02,2.62,.03,3.93-.68,.26-1.37,.53-2.05,.79Z"/>
    </g>
  </g>
</svg>