<?xml version="1.0" encoding="UTF-8"?>
<svg id="_レイヤー_2" data-name="レイヤー 2" xmlns="http://www.w3.org/2000/svg" viewBox="0 0 17.8 24.43">
  <defs>
    <style>
      .cls-1 {
        fill: #83ae94;
      }

      .cls-2 {
        fill: #4b4b4b;
      }

      .cls-3 {
        fill: #89b199;
      }

      .cls-4 {
        fill: #4a4a4a;
      }

      .cls-5 {
        fill: #4d4d4d;
      }

      .cls-6 {
        fill: #4e4e4e;
      }

      .cls-7 {
        fill: #fae7de;
      }

      .cls-8 {
        fill: #f3e2da;
      }

      .cls-9 {
        fill: #5a5a5a;
      }

      .cls-10 {
        fill: #636363;
      }

      .cls-11 {
        fill: #5fad63;
      }

      .cls-12 {
        fill: #fbe8df;
      }

      .cls-13 {
        fill: #838383;
      }

      .cls-14 {
        fill: #6bc871;
      }

      .cls-15 {
        fill: #599f5d;
      }

      .cls-16 {
        fill: #666;
      }

      .cls-17 {
        fill: #dfdfdf;
      }
    </style>
  </defs>
  <g id="_レイヤー_2-2" data-name=" レイヤー 2">
    <g id="_レイヤー_2-2" data-name=" レイヤー 2-2">
      <g id="_レイヤー_1-2" data-name=" レイヤー 1-2">
        <g>
          <path class="cls-8" d="M3.85,22.6c.11-.62,.23-1.24,.34-1.87,.71-1.04,1.69-1.36,2.9-1.11,1.98,1.06,2.84,2.58,1.91,4.79h-3.92c-.56-.51-1.42-.81-1.23-1.82h0Z"/>
          <path class="cls-12" d="M8.99,24.43c-.66-1.33-1.33-2.65-1.99-3.98-.25-.45-.2-.85,.17-1.21,.45-.18,.9-.22,1.37-.12,1.39,1.23,2.92,2.34,3.83,4.03,.03,.49-.12,.92-.44,1.28,0,0-2.94,0-2.94,0Z"/>
          <path class="cls-17" d="M11.93,24.43c0-.32-.01-.65-.01-.97-.22-.93-1.17-1.85,0-2.78,1.52-.18,2.43,.63,3.07,1.87,.39,1.06-.55,1.36-1.1,1.88,0,0-1.96,0-1.96,0Z"/>
          <path class="cls-13" d="M3.85,22.6c.41,.61,.82,1.21,1.23,1.82H.18c.48-2.09,2.45-1.2,3.67-1.82Z"/>
          <path class="cls-11" d="M13.88,24.43c.37-.63,.73-1.25,1.1-1.88,1.41-.07,2.15,.85,2.82,1.88h-3.92Z"/>
          <path class="cls-14" d="M17.78,2.83c-.93,1.91,.91,4.17-.75,5.99-1.4,1.83-3.07,2.46-5.18,1.21-.4-.22-.74-.52-1.02-.88-.53-1.09-1.02-2.23-2.09-2.95-.61-.45-1.28-.85-1.73-1.49C8.08,2.03,10.13,.57,12.9,0V.04c1.4,1.32,3.43,1.55,4.89,2.79h0Z"/>
          <path class="cls-3" d="M6.98,19.56c.04,.3,.04,.59,.02,.89-.94,.1-1.88,.19-2.81,.29C2.67,17.17-.95,14.36,.24,9.81c1.63,1.08,3.61,1.78,4.29,3.91,1.08,1.84,3.18,3.25,2.45,5.84Z"/>
          <path class="cls-2" d="M3,14.61c-.92-1.6-1.84-3.2-2.76-4.8,.9-.05,1.8-.1,2.7-.16,.4-.26,.81-.49,1.23-.72,1.03-.29,1.9,.13,2.75,.62,.42,.29,.75,.66,.99,1.1,.2,.48,.28,.97,.26,1.48-.06,.51-.24,.98-.53,1.41-1.26,1.6-2.8,1.97-4.64,1.05,0,0,0,.02,0,.02Z"/>
          <path class="cls-10" d="M7.02,10.75c-.98-.33-1.95-.67-2.93-1-.3-.23-.47-.54-.49-.93-.04-.38-.19-.7-.45-.97,.42-1.48,1.38-2.14,2.93-1.92,.53,.28,1.13,.36,1.67,.61,.73,.5,1.11,1.18,1.14,2.07-.05,.65-.34,1.18-.76,1.66-.33,.26-.7,.42-1.11,.48Z"/>
          <path class="cls-6" d="M7,4.71c.65-.26,1.31-.51,1.96-.77,.52,.47,.63,1.07,.53,1.73-.21,.38-.52,.66-.92,.82-.43,.06-.84,0-1.23-.19l-.39-.51c.02-.36,.04-.72,.06-1.07h0Z"/>
          <path class="cls-4" d="M7.04,6.85c-.32-.3-.64-.61-.96-.91,.28-.08,.57-.13,.87-.15l.07,.11c.13,.16,.26,.31,.39,.47-.12,.16-.24,.32-.37,.48Z"/>
          <path class="cls-9" d="M3.15,7.85c.31,.32,.63,.63,.94,.95-.3,.46-.61,.44-.91,0-.08-.31-.09-.63-.03-.95Z"/>
          <path class="cls-16" d="M3.18,8.8h.91v.95c-.38-.03-.77-.06-1.15-.09,.06-.29,.15-.58,.25-.86h0Z"/>
          <path class="cls-7" d="M3,14.61c1.58-.03,2.18-2.25,3.99-1.76,1.01-.37,2.03-.61,3.11-.42,.63-.02,1.26-.09,1.9-.09,1.11,.08,2.03,.57,2.79,1.36-.21,2.61-1.58,4.49-3.7,5.9-1.04,.89-2.07,.63-3.08-.06-.34,0-.69,.01-1.03,.02-2.06-1.07-2.88-3.12-3.98-4.95Z"/>
          <path class="cls-5" d="M14.79,13.7c-.92,.82-1.9,.49-2.87,.14-2.87-.97-.87-2.9-.89-4.44,.25-.41,.61-.69,1.05-.87,1.63,.44,3.25,1.01,4.95,.3-.74,1.63-1.49,3.26-2.23,4.88h0Z"/>
          <path class="cls-8" d="M8.01,19.55c1.03,.02,2.05,.04,3.08,.06,.27,.36,.54,.71,.82,1.07v2.78c-1.61-.99-2.92-2.29-3.91-3.91h.01Z"/>
          <path class="cls-1" d="M17.78,2.83c-1.97-.34-4.16-.3-4.9-2.79,1.86,.53,4.01,.55,4.9,2.79Z"/>
          <path class="cls-4" d="M12.07,8.52c-.06,.46-.13,.92-.19,1.39-.37,.33-.78,.61-1.21,.85-1.03,.36-1.95,.19-2.73-.6-.36-.44-.36-.88,.01-1.31-.3-.67-.61-1.33-.91-2l-.03,.04c.48-.68,1.46-.37,1.97-.99l.04-.03c1.9-.67,1.89,1.38,2.88,2.01,.09,.21,.14,.43,.17,.65h0Z"/>
          <path class="cls-15" d="M11.91,7.87c-1.43,0-1.94-1.31-2.88-2.01-.02-.64-.04-1.28-.06-1.93,1.75,.74,3.08,1.79,2.94,3.93h0Z"/>
          <path class="cls-4" d="M7.96,9.77c1.03,.02,2.07,.04,3.1,.06,.7,1.87-.36,3.31-1.2,4.8-.96-.59-1.92-1.18-2.87-1.78,.01-.37,.03-.74,.04-1.11,.26-.21,.35-.41,.27-.63-.08-.21-.17-.32-.25-.32l-.03-.04c.01-.3,.02-.6,.02-.9,.27-.43,.58-.44,.92-.09h0Z"/>
          <path class="cls-4" d="M7.05,10.79c.06,.22,.14,.43,.16,.65,0,.09-.12,.2-.18,.3,0-.32,.01-.63,.02-.95Z"/>
          <path class="cls-16" d="M7.96,9.77c-.31,.02-.61,.05-.92,.09,.31-.34,.61-.67,.92-1.01,.02,.31,.02,.62,0,.92Z"/>
          <path class="cls-16" d="M8.98,5.89c-.66,.33-1.31,.66-1.97,.99v-.99s1.97,0,1.97,0Z"/>
          <path class="cls-8" d="M9.86,14.63c.4-1.6,.8-3.2,1.2-4.8,.28-.03,.55,0,.82,.08,.01,1.31,.02,2.62,.03,3.93-.68,.26-1.37,.53-2.05,.79Z"/>
        </g>
      </g>
    </g>
  </g>
</svg>